<svg xmlns="http://www.w3.org/2000/svg" width="15" height="9" viewBox="0 0 15 9" fill="none">
  <g clip-path="url(#clip0_0_148)">
    <path d="M1.37501 5.30375L11.9822 5.30375L9.65179 7.63411C9.33037 7.95554 9.33037 8.43768 9.65179 8.75911C9.97322 9.08054 10.4554 9.08054 10.7768 8.75911L14.4732 5.06268C14.7947 4.74125 14.7947 4.25911 14.4732 3.93768L10.7768 0.241254C10.4554 -0.0801748 9.97322 -0.0801749 9.65179 0.241254C9.33037 0.562683 9.33037 1.04483 9.65179 1.36625L11.9822 3.69661L1.37501 3.69661C0.973222 3.69661 0.571436 4.01804 0.571436 4.50018C0.571436 4.98232 0.973222 5.30375 1.37501 5.30375Z" fill="#4089ED"/>
  </g>
  <defs>
    <clipPath id="clip0_0_148">
      <rect width="14.1429" height="9" fill="white" transform="translate(14.7143 9.00018) rotate(-180)"/>
    </clipPath>
  </defs>
</svg>